<mxfile host="Electron" modified="2024-04-11T12:03:58.109Z" agent="Mozilla/5.0 (Windows NT 10.0; Win64; x64) AppleWebKit/537.36 (KHTML, like Gecko) draw.io/23.1.5 Chrome/120.0.6099.109 Electron/28.1.0 Safari/537.36" etag="KZ34dReE3y89001ytKw8" version="23.1.5" type="device">
  <diagram name="第 1 页" id="fujhrwiBcE2cFeqQBqLM">
    <mxGraphModel dx="1434" dy="844" grid="1" gridSize="10" guides="1" tooltips="1" connect="1" arrows="1" fold="1" page="1" pageScale="1" pageWidth="827" pageHeight="1169" math="0" shadow="0">
      <root>
        <mxCell id="0" />
        <mxCell id="9HwOi20LR-9oilrvqthx-15" value="Alt_1" style="locked=1;" parent="0" />
        <mxCell id="9HwOi20LR-9oilrvqthx-20" value="" style="group" vertex="1" connectable="0" parent="9HwOi20LR-9oilrvqthx-15">
          <mxGeometry x="190" y="350" width="370" height="440" as="geometry" />
        </mxCell>
        <mxCell id="9HwOi20LR-9oilrvqthx-16" value="Alt" style="shape=umlFrame;whiteSpace=wrap;html=1;pointerEvents=0;strokeColor=#999999;" vertex="1" parent="9HwOi20LR-9oilrvqthx-20">
          <mxGeometry width="370" height="440.00000000000006" as="geometry" />
        </mxCell>
        <mxCell id="9HwOi20LR-9oilrvqthx-19" value="[下标&amp;lt;0]" style="text;html=1;align=center;verticalAlign=middle;resizable=0;points=[];autosize=1;strokeColor=none;fillColor=none;" vertex="1" parent="9HwOi20LR-9oilrvqthx-20">
          <mxGeometry y="40" width="70" height="30" as="geometry" />
        </mxCell>
        <mxCell id="9HwOi20LR-9oilrvqthx-21" value="[下标&amp;gt;=0]" style="text;html=1;align=center;verticalAlign=middle;resizable=0;points=[];autosize=1;strokeColor=none;fillColor=none;" vertex="1" parent="9HwOi20LR-9oilrvqthx-20">
          <mxGeometry y="180.00000000000003" width="70" height="30" as="geometry" />
        </mxCell>
        <mxCell id="9HwOi20LR-9oilrvqthx-22" value="" style="endArrow=none;dashed=1;html=1;rounded=0;exitX=0;exitY=0.745;exitDx=0;exitDy=0;exitPerimeter=0;strokeColor=#999999;" edge="1" parent="9HwOi20LR-9oilrvqthx-20">
          <mxGeometry width="50" height="50" relative="1" as="geometry">
            <mxPoint y="180" as="sourcePoint" />
            <mxPoint x="370" y="180" as="targetPoint" />
          </mxGeometry>
        </mxCell>
        <mxCell id="1" style="" parent="0" />
        <mxCell id="qXGHIFl1t8Y-UK7Bmxed-2" value="" style="shape=umlLifeline;perimeter=lifelinePerimeter;whiteSpace=wrap;html=1;container=1;dropTarget=0;collapsible=0;recursiveResize=0;outlineConnect=0;portConstraint=eastwest;newEdgeStyle={&quot;curved&quot;:0,&quot;rounded&quot;:0};participant=umlActor;" parent="1" vertex="1">
          <mxGeometry x="40" y="160" width="20" height="640" as="geometry" />
        </mxCell>
        <mxCell id="9HwOi20LR-9oilrvqthx-2" value="" style="html=1;points=[[0,0,0,0,5],[0,1,0,0,-5],[1,0,0,0,5],[1,1,0,0,-5]];perimeter=orthogonalPerimeter;outlineConnect=0;targetShapes=umlLifeline;portConstraint=eastwest;newEdgeStyle={&quot;curved&quot;:0,&quot;rounded&quot;:0};" vertex="1" parent="qXGHIFl1t8Y-UK7Bmxed-2">
          <mxGeometry x="5" y="70" width="10" height="40" as="geometry" />
        </mxCell>
        <mxCell id="9HwOi20LR-9oilrvqthx-1" value="MainWindow" style="shape=umlLifeline;perimeter=lifelinePerimeter;whiteSpace=wrap;html=1;container=1;dropTarget=0;collapsible=0;recursiveResize=0;outlineConnect=0;portConstraint=eastwest;newEdgeStyle={&quot;curved&quot;:0,&quot;rounded&quot;:0};" vertex="1" parent="1">
          <mxGeometry x="110" y="160" width="100" height="640" as="geometry" />
        </mxCell>
        <mxCell id="9HwOi20LR-9oilrvqthx-3" value="" style="html=1;points=[[0,0,0,0,5],[0,1,0,0,-5],[1,0,0,0,5],[1,1,0,0,-5]];perimeter=orthogonalPerimeter;outlineConnect=0;targetShapes=umlLifeline;portConstraint=eastwest;newEdgeStyle={&quot;curved&quot;:0,&quot;rounded&quot;:0};" vertex="1" parent="9HwOi20LR-9oilrvqthx-1">
          <mxGeometry x="45" y="90" width="10" height="270" as="geometry" />
        </mxCell>
        <mxCell id="9HwOi20LR-9oilrvqthx-31" value="" style="html=1;points=[[0,0,0,0,5],[0,1,0,0,-5],[1,0,0,0,5],[1,1,0,0,-5]];perimeter=orthogonalPerimeter;outlineConnect=0;targetShapes=umlLifeline;portConstraint=eastwest;newEdgeStyle={&quot;curved&quot;:0,&quot;rounded&quot;:0};" vertex="1" parent="9HwOi20LR-9oilrvqthx-1">
          <mxGeometry x="45" y="390" width="10" height="230" as="geometry" />
        </mxCell>
        <mxCell id="9HwOi20LR-9oilrvqthx-4" value="左键点击壁纸按钮" style="html=1;verticalAlign=bottom;startArrow=oval;endArrow=block;startSize=8;curved=0;rounded=0;entryX=0;entryY=0;entryDx=0;entryDy=5;" edge="1" target="9HwOi20LR-9oilrvqthx-3" parent="1" source="9HwOi20LR-9oilrvqthx-2">
          <mxGeometry relative="1" as="geometry">
            <mxPoint x="105" y="265" as="sourcePoint" />
          </mxGeometry>
        </mxCell>
        <mxCell id="9HwOi20LR-9oilrvqthx-6" value="WallpaperFlow&lt;br&gt;LayoutPanel" style="shape=umlLifeline;perimeter=lifelinePerimeter;whiteSpace=wrap;html=1;container=1;dropTarget=0;collapsible=0;recursiveResize=0;outlineConnect=0;portConstraint=eastwest;newEdgeStyle={&quot;curved&quot;:0,&quot;rounded&quot;:0};" vertex="1" parent="1">
          <mxGeometry x="230" y="160" width="100" height="640" as="geometry" />
        </mxCell>
        <mxCell id="9HwOi20LR-9oilrvqthx-7" value="" style="html=1;points=[[0,0,0,0,5],[0,1,0,0,-5],[1,0,0,0,5],[1,1,0,0,-5]];perimeter=orthogonalPerimeter;outlineConnect=0;targetShapes=umlLifeline;portConstraint=eastwest;newEdgeStyle={&quot;curved&quot;:0,&quot;rounded&quot;:0};" vertex="1" parent="9HwOi20LR-9oilrvqthx-6">
          <mxGeometry x="45" y="120" width="10" height="240" as="geometry" />
        </mxCell>
        <mxCell id="9HwOi20LR-9oilrvqthx-10" value="获取按钮下标" style="html=1;verticalAlign=bottom;startArrow=oval;startFill=1;endArrow=block;startSize=8;curved=0;rounded=0;" edge="1" parent="9HwOi20LR-9oilrvqthx-6">
          <mxGeometry x="-0.2857" y="15" width="60" relative="1" as="geometry">
            <mxPoint x="55" y="151" as="sourcePoint" />
            <mxPoint x="55" y="171" as="targetPoint" />
            <Array as="points">
              <mxPoint x="80" y="151" />
              <mxPoint x="80" y="171" />
            </Array>
            <mxPoint x="-5" y="-11" as="offset" />
          </mxGeometry>
        </mxCell>
        <mxCell id="9HwOi20LR-9oilrvqthx-18" value="初始化壁纸&lt;br&gt;信息UI" style="html=1;verticalAlign=bottom;startArrow=oval;startFill=1;endArrow=block;startSize=8;curved=0;rounded=0;" edge="1" parent="9HwOi20LR-9oilrvqthx-6">
          <mxGeometry x="-0.2857" y="14" width="60" relative="1" as="geometry">
            <mxPoint x="55" y="290" as="sourcePoint" />
            <mxPoint x="55" y="310" as="targetPoint" />
            <Array as="points">
              <mxPoint x="80" y="290" />
              <mxPoint x="80" y="310" />
            </Array>
            <mxPoint x="-4" y="-10" as="offset" />
          </mxGeometry>
        </mxCell>
        <mxCell id="9HwOi20LR-9oilrvqthx-24" value="" style="html=1;points=[[0,0,0,0,5],[0,1,0,0,-5],[1,0,0,0,5],[1,1,0,0,-5]];perimeter=orthogonalPerimeter;outlineConnect=0;targetShapes=umlLifeline;portConstraint=eastwest;newEdgeStyle={&quot;curved&quot;:0,&quot;rounded&quot;:0};" vertex="1" parent="9HwOi20LR-9oilrvqthx-6">
          <mxGeometry x="45" y="390" width="10" height="230" as="geometry" />
        </mxCell>
        <mxCell id="9HwOi20LR-9oilrvqthx-29" value="设置壁纸标题、&lt;br&gt;预览图等信息" style="html=1;verticalAlign=bottom;startArrow=oval;startFill=1;endArrow=block;startSize=8;curved=0;rounded=0;" edge="1" parent="9HwOi20LR-9oilrvqthx-6" source="9HwOi20LR-9oilrvqthx-24" target="9HwOi20LR-9oilrvqthx-24">
          <mxGeometry x="-0.2222" y="14" width="60" relative="1" as="geometry">
            <mxPoint x="65" y="300" as="sourcePoint" />
            <mxPoint x="65" y="320" as="targetPoint" />
            <Array as="points">
              <mxPoint x="90" y="485" />
              <mxPoint x="90" y="510" />
            </Array>
            <mxPoint x="-4" y="-10" as="offset" />
          </mxGeometry>
        </mxCell>
        <mxCell id="9HwOi20LR-9oilrvqthx-32" value="设置年龄分级文本" style="html=1;verticalAlign=bottom;startArrow=oval;startFill=1;endArrow=block;startSize=8;curved=0;rounded=0;" edge="1" parent="9HwOi20LR-9oilrvqthx-6" source="9HwOi20LR-9oilrvqthx-24" target="9HwOi20LR-9oilrvqthx-24">
          <mxGeometry x="-0.2222" y="14" width="60" relative="1" as="geometry">
            <mxPoint x="65" y="495" as="sourcePoint" />
            <mxPoint x="65" y="520" as="targetPoint" />
            <Array as="points">
              <mxPoint x="90" y="540" />
              <mxPoint x="90" y="570" />
            </Array>
            <mxPoint x="-4" y="-10" as="offset" />
          </mxGeometry>
        </mxCell>
        <mxCell id="9HwOi20LR-9oilrvqthx-8" value="转发事件" style="html=1;verticalAlign=bottom;startArrow=oval;endArrow=block;startSize=8;curved=0;rounded=0;entryX=0;entryY=0;entryDx=0;entryDy=5;" edge="1" target="9HwOi20LR-9oilrvqthx-7" parent="1" source="9HwOi20LR-9oilrvqthx-3">
          <mxGeometry relative="1" as="geometry">
            <mxPoint x="205" y="295" as="sourcePoint" />
          </mxGeometry>
        </mxCell>
        <mxCell id="9HwOi20LR-9oilrvqthx-11" value="SettingManager" style="shape=umlLifeline;perimeter=lifelinePerimeter;whiteSpace=wrap;html=1;container=1;dropTarget=0;collapsible=0;recursiveResize=0;outlineConnect=0;portConstraint=eastwest;newEdgeStyle={&quot;curved&quot;:0,&quot;rounded&quot;:0};" vertex="1" parent="1">
          <mxGeometry x="350" y="160" width="100" height="640" as="geometry" />
        </mxCell>
        <mxCell id="9HwOi20LR-9oilrvqthx-12" value="" style="html=1;points=[[0,0,0,0,5],[0,1,0,0,-5],[1,0,0,0,5],[1,1,0,0,-5]];perimeter=orthogonalPerimeter;outlineConnect=0;targetShapes=umlLifeline;portConstraint=eastwest;newEdgeStyle={&quot;curved&quot;:0,&quot;rounded&quot;:0};" vertex="1" parent="9HwOi20LR-9oilrvqthx-11">
          <mxGeometry x="45" y="210" width="10" height="40" as="geometry" />
        </mxCell>
        <mxCell id="9HwOi20LR-9oilrvqthx-13" value="获取提示和路径文本" style="html=1;verticalAlign=bottom;endArrow=block;curved=0;rounded=0;entryX=0;entryY=0;entryDx=0;entryDy=5;startSize=8;startArrow=oval;startFill=1;" edge="1" target="9HwOi20LR-9oilrvqthx-12" parent="1" source="9HwOi20LR-9oilrvqthx-7">
          <mxGeometry relative="1" as="geometry">
            <mxPoint x="325" y="375" as="sourcePoint" />
          </mxGeometry>
        </mxCell>
        <mxCell id="9HwOi20LR-9oilrvqthx-14" value="返回文本" style="html=1;verticalAlign=bottom;endArrow=open;dashed=1;endSize=8;curved=0;rounded=0;exitX=0;exitY=1;exitDx=0;exitDy=-5;" edge="1" source="9HwOi20LR-9oilrvqthx-12" parent="1" target="9HwOi20LR-9oilrvqthx-7">
          <mxGeometry relative="1" as="geometry">
            <mxPoint x="325" y="445" as="targetPoint" />
          </mxGeometry>
        </mxCell>
        <mxCell id="9HwOi20LR-9oilrvqthx-25" value="Wallpaper" style="shape=umlLifeline;perimeter=lifelinePerimeter;whiteSpace=wrap;html=1;container=1;dropTarget=0;collapsible=0;recursiveResize=0;outlineConnect=0;portConstraint=eastwest;newEdgeStyle={&quot;curved&quot;:0,&quot;rounded&quot;:0};" vertex="1" parent="1">
          <mxGeometry x="470" y="160" width="100" height="640" as="geometry" />
        </mxCell>
        <mxCell id="9HwOi20LR-9oilrvqthx-26" value="" style="html=1;points=[[0,0,0,0,5],[0,1,0,0,-5],[1,0,0,0,5],[1,1,0,0,-5]];perimeter=orthogonalPerimeter;outlineConnect=0;targetShapes=umlLifeline;portConstraint=eastwest;newEdgeStyle={&quot;curved&quot;:0,&quot;rounded&quot;:0};" vertex="1" parent="9HwOi20LR-9oilrvqthx-25">
          <mxGeometry x="45" y="400" width="10" height="40" as="geometry" />
        </mxCell>
        <mxCell id="9HwOi20LR-9oilrvqthx-27" value="根据下标获取壁纸信息" style="html=1;verticalAlign=bottom;endArrow=block;curved=0;rounded=0;entryX=0;entryY=0;entryDx=0;entryDy=5;startSize=8;startArrow=oval;startFill=1;" edge="1" target="9HwOi20LR-9oilrvqthx-26" parent="1" source="9HwOi20LR-9oilrvqthx-24">
          <mxGeometry relative="1" as="geometry">
            <mxPoint x="445" y="575" as="sourcePoint" />
          </mxGeometry>
        </mxCell>
        <mxCell id="9HwOi20LR-9oilrvqthx-28" value="返回壁纸信息" style="html=1;verticalAlign=bottom;endArrow=open;dashed=1;endSize=8;curved=0;rounded=0;exitX=0;exitY=1;exitDx=0;exitDy=-5;" edge="1" source="9HwOi20LR-9oilrvqthx-26" parent="1" target="9HwOi20LR-9oilrvqthx-24">
          <mxGeometry relative="1" as="geometry">
            <mxPoint x="445" y="645" as="targetPoint" />
          </mxGeometry>
        </mxCell>
        <mxCell id="9HwOi20LR-9oilrvqthx-30" value="更新UI" style="html=1;verticalAlign=bottom;endArrow=open;dashed=1;endSize=8;curved=0;rounded=0;" edge="1" parent="1">
          <mxGeometry relative="1" as="geometry">
            <mxPoint x="275" y="514.5" as="sourcePoint" />
            <mxPoint x="165" y="514.5" as="targetPoint" />
          </mxGeometry>
        </mxCell>
        <mxCell id="9HwOi20LR-9oilrvqthx-33" value="更新UI" style="html=1;verticalAlign=bottom;endArrow=open;dashed=1;endSize=8;curved=0;rounded=0;" edge="1" parent="1">
          <mxGeometry relative="1" as="geometry">
            <mxPoint x="275" y="770" as="sourcePoint" />
            <mxPoint x="165" y="770" as="targetPoint" />
          </mxGeometry>
        </mxCell>
      </root>
    </mxGraphModel>
  </diagram>
</mxfile>
